<svg width="32" height="32" viewBox="0 0 32 32" fill="none" xmlns="http://www.w3.org/2000/svg">
<rect width="32" height="32" fill="white"/>
<path d="M16.1455 9.14258C13.2019 9.14258 11.361 10.6666 10.6255 13.7139C11.7295 12.1906 13.017 11.6186 14.4895 12.0006C15.3301 12.2172 15.9295 12.8479 16.5943 13.5459C17.6763 14.6832 18.9295 15.9999 21.6661 15.9999C24.6103 15.9999 26.4505 14.4759 27.1861 11.4286C26.0828 12.9526 24.7945 13.5239 23.3221 13.1426C22.4828 12.9259 21.8821 12.2946 21.2173 11.5959C20.1353 10.4592 18.8821 9.14258 16.1455 9.14258ZM10.6255 15.9999C7.68125 15.9999 5.84104 17.5239 5.10547 20.5712C6.20882 19.0472 7.49704 18.4759 8.96947 18.8572C9.80882 19.0739 10.4095 19.7052 11.0743 20.4039C12.1563 21.5406 13.4095 22.8572 16.1455 22.8572C19.0903 22.8572 20.9305 21.3332 21.6661 18.2859C20.5621 19.8099 19.2739 20.3812 17.8021 19.9999C16.9621 19.7826 16.3621 19.1519 15.6973 18.4532C14.6147 17.3166 13.3628 15.9999 10.6255 15.9999Z" fill="#0EA5E9"/>
</svg>
